<svg xmlns="http://www.w3.org/2000/svg" width="42" height="42" viewBox="0 0 42 42"><defs><style>.a{fill:#f7f8fa;opacity:0.78;}.b{fill:none;}</style></defs><g transform="translate(-208 -236)"><circle class="a" cx="21" cy="21" r="21" transform="translate(208 236)"/><g transform="translate(217 245)"><path class="b" d="M0,0H24V24H0Z"/><path d="M7,6V3A1,1,0,0,1,8,2H20a1,1,0,0,1,1,1V17a1,1,0,0,1-1,1H17v3a1,1,0,0,1-1.007,1H4.007A1,1,0,0,1,3,21L3,7A1,1,0,0,1,4.009,6ZM5,8,5,20H15V8ZM9,6h8V16h2V4H9ZM7,11h6v2H7Zm0,4h6v2H7Z"/></g></g></svg>