<svg xmlns="http://www.w3.org/2000/svg" width="18.001" height="18.001" viewBox="0 0 18.001 18.001"><defs><style>.a{fill:none;}</style></defs><g transform="translate(513 -1079)"><path class="a" d="M0,0H18V18H0Z" transform="translate(-513 1079)"/><path d="M111.7,77.029h8.613v1.544c-.464.059-.934.136-1.407.176a34.084,34.084,0,0,1-6.5-.06c-.712-.075-.712-.075-.712-.8C111.7,77.61,111.7,77.33,111.7,77.029Zm1.936-4.143a2.69,2.69,0,0,0,4.6.04c.548.1.551.1.551.64,0,.708-.008,1.418.005,2.127.005.251-.062.347-.33.345q-2.517-.015-5.036,0c-.224,0-.315-.06-.311-.3q.018-1.2,0-2.408c-.005-.409.362-.278.522-.442Zm-1.526.71c0,.754.005,1.5-.01,2.252,0,.064-.132.169-.213.179-.883.1-1.167.407-1.172,1.289,0,.343,0,.687,0,1.125-.506-.176-.963-.327-1.412-.5-.059-.022-.112-.152-.109-.231a4.134,4.134,0,0,1,2.833-4.131C112.035,73.576,112.045,73.583,112.107,73.6Zm7.71-.044a3.816,3.816,0,0,1,2.2,1.676,5.381,5.381,0,0,1,.692,2.408.326.326,0,0,1-.244.377c-.365.117-.727.241-1.149.383,0-.405-.015-.745,0-1.085a1.09,1.09,0,0,0-1.212-1.273c-.231.018-.333-.05-.327-.311.02-.678.007-1.355.008-2.033C119.793,73.663,119.8,73.631,119.817,73.552Zm-.308-6.454a.373.373,0,0,0-.308-.154h0a0,0,0,0,0,0,0l-.02-.037a.719.719,0,0,1-.06-.213,2.631,2.631,0,0,0-.164-.621,2.8,2.8,0,0,0-.824-1.105.461.461,0,0,0-.151-.122l-.007,0c-.094-.054-.189-.1-.276-.146,0,.258,0,.477,0,.7,0,.147-.03.283-.238.286a.215.215,0,0,1-.248-.214c0-.02,0-.042,0-.064-.005-.228-.017-.456,0-.682,0-.008,0-.017,0-.025.017-.216-.054-.342-.306-.387l-.008,0c-.028-.007-.059-.013-.092-.018a.373.373,0,0,1-.039-.007c-.146-.033-.271-.1-.275-.29,0-.037-.121-.1-.189-.1l-.059,0a.069.069,0,0,0-.018,0,5.022,5.022,0,0,0-.673.01c-.069.005-.188.069-.188.105,0,.206-.141.265-.3.3h0a.01.01,0,0,0-.007,0,.6.6,0,0,0-.064.013l-.035.007c-.234.045-.31.157-.3.347a.41.41,0,0,0,0,.045c.022.234.013.471.012.707,0,.022,0,.044,0,.065a.214.214,0,0,1-.244.214c-.208,0-.239-.137-.243-.285,0-.213-.008-.427-.012-.677V64.7l-.012.007a2.251,2.251,0,0,0-.231.136,2.9,2.9,0,0,0-.985,1.244,2.639,2.639,0,0,0-.162.645.759.759,0,0,1-.04.174.265.265,0,0,1-.017.039H112.7a.348.348,0,0,0-.36.291.171.171,0,0,0,0,.028v.025a.234.234,0,0,0,.023.1.3.3,0,0,0,.263.161h.742a7.433,7.433,0,0,0,.924,0h4.977a.126.126,0,0,0,.025,0,.3.3,0,0,0,.248-.159.234.234,0,0,0,.023-.1v-.025A.307.307,0,0,0,119.509,67.1Zm-.5,2.276a2.046,2.046,0,0,0,.213-1.167H112.7a2.073,2.073,0,0,0,.206,1.191c-.481.181-.6.522-.3.827a4.38,4.38,0,0,0,.476.353,2.586,2.586,0,0,1,.362.3,10.735,10.735,0,0,0,1.149,1.289,2.133,2.133,0,0,0,2.726.012,10.528,10.528,0,0,0,1.114-1.224,1.857,1.857,0,0,1,.469-.405C119.576,70.19,119.659,69.674,119.006,69.374Zm-.864,1.415c-.41.66-1.189,1.767-2.391,1.611a2.542,2.542,0,0,1-1.6-1.05,4.377,4.377,0,0,1-.524-.77c-.05-.1-.352-1.04-.383-1.043a5.967,5.967,0,0,0,3.8-.893,3.234,3.234,0,0,0,.253-.206,1.015,1.015,0,0,0,.074.206,1.653,1.653,0,0,0,1.308.919A6.734,6.734,0,0,1,118.142,70.789Z" transform="translate(-619.941 1016.626)"/></g></svg>